<?xml version="1.0" standalone="no"?>
<!DOCTYPE svg PUBLIC "-//W3C//DTD SVG 1.1//EN" "http://www.w3.org/Graphics/SVG/1.1/DTD/svg11.dtd">
<svg viewBox="0 0 512 512" version="1.1" xmlns="http://www.w3.org/2000/svg" x="0" y="0" width="512px" height="512px">
<path d="M 0 256 C 0 397.3854 114.6146 512 256 512 C 397.3854 512 512 397.3854 512 256 C 512 114.6146 397.3854 0 256 0 C 114.6146 0 0 114.6146 0 256 ZM 73.2865 256 C 73.2865 155.0885 155.0885 73.2865 256 73.2865 C 356.9115 73.2865 438.7135 155.0885 438.7135 256 C 438.7135 356.9115 356.9115 438.7135 256 438.7135 C 155.0885 438.7135 73.2865 356.9115 73.2865 256 ZM 168.1563 333.8932 C 168.1563 358.474 190.6302 368.4401 218.3542 356.1484 C 218.3542 356.1484 343.5313 294.5885 371.7656 257.8828 C 374.2865 254.6042 218.3542 155.8516 218.3542 155.8516 C 190.6302 143.5599 168.1563 153.526 168.1563 178.1068 L 168.1563 333.8932 Z"/>
</svg>