<?xml version="1.0" standalone="no"?>
<!DOCTYPE svg PUBLIC "-//W3C//DTD SVG 1.1//EN" "http://www.w3.org/Graphics/SVG/1.1/DTD/svg11.dtd">
<svg viewBox="0 0 512 512" version="1.1" xmlns="http://www.w3.org/2000/svg" x="0" y="0" width="512px" height="512px">
<path d="M 32 256 C 32 132.2866 132.2866 32 256 32 C 379.7134 32 480 132.2866 480 256 C 480 379.7134 379.7134 480 256 480 C 132.2866 480 32 379.7134 32 256 ZM 0 256 C 0 397.3867 114.6133 512 256 512 C 397.3867 512 512 397.3867 512 256 C 512 114.6133 397.3867 0 256 0 C 114.6133 0 0 114.6133 0 256 ZM 264.8913 269.6965 L 345.8913 218.6965 C 353.3853 214.0138 355.6641 204.1429 350.9814 196.649 C 346.2987 189.1552 336.4278 186.8763 328.9339 191.559 L 263.24 232.93 L 205.5389 103.3249 C 201.9447 95.2522 192.487 91.6218 184.4144 95.216 C 176.3417 98.8102 172.7112 108.2678 176.3054 116.3405 L 241.3869 262.5062 C 243.3474 266.9095 247.0515 269.9925 251.325 271.3 C 255.7003 272.7642 260.673 272.3324 264.8913 269.6965 Z"/>
</svg>