<?xml version="1.0" standalone="no"?>
<!DOCTYPE svg PUBLIC "-//W3C//DTD SVG 1.1//EN" "http://www.w3.org/Graphics/SVG/1.1/DTD/svg11.dtd">
<svg viewBox="0 0 512 512" version="1.1" xmlns="http://www.w3.org/2000/svg" x="0" y="0" width="512px" height="512px">
<path d="M 235.225 352 L 112 352 C 67.8167 352 32 316.1833 32 272 L 32 112 C 32 67.8167 67.8167 32 112 32 L 400 32 C 444.1833 32 480 67.8167 480 112 L 480 272 C 480 316.1833 444.1833 352 400 352 L 352 352 L 352 445.42 L 235.225 352 ZM 112 0 C 50.1433 0 0 50.1433 0 112 L 0 272 C 0 333.8567 50.1433 384 112 384 L 224 384 L 384 512 L 384 384 L 400 384 C 461.8567 384 512 333.8567 512 272 L 512 112 C 512 50.1433 461.8567 0 400 0 L 112 0 Z"/>
</svg>