<?xml version="1.0" standalone="no"?>
<!DOCTYPE svg PUBLIC "-//W3C//DTD SVG 1.1//EN" "http://www.w3.org/Graphics/SVG/1.1/DTD/svg11.dtd">
<svg viewBox="0 0 512 512" version="1.1" xmlns="http://www.w3.org/2000/svg" x="0" y="0" width="512px" height="512px">
<path d="M 159.2889 256 C 159.2889 202.5872 202.5872 159.2889 256 159.2889 C 309.4122 159.2889 352.7111 202.5872 352.7111 256 C 352.7111 309.4128 309.4122 352.7111 256 352.7111 C 202.5872 352.7111 159.2889 309.4128 159.2889 256 ZM 271.5106 374.4683 C 280.7028 373.2767 289.5672 371.0389 297.9811 367.8806 L 338.2011 474.3483 C 321.7856 480.5311 304.4872 484.9156 286.5489 487.2617 L 271.5106 374.4683 ZM 329.3495 350.305 C 347.815 335.9222 361.9439 316.2344 369.4506 293.5322 L 477.42 329.5233 C 462.7439 373.745 435.1917 412.0917 399.2061 440.1211 L 329.3495 350.305 ZM 239.9289 137.6056 C 230.755 138.8392 221.9117 141.1142 213.5206 144.3072 L 173.3006 37.8425 C 189.6939 31.6247 206.97 27.2006 224.89 24.8122 L 239.9289 137.6056 ZM 182.65 161.6953 C 164.3239 175.9695 150.2683 195.4695 142.72 217.9556 L 34.7506 181.9647 C 49.4694 137.9589 76.9489 99.7997 112.7961 71.8792 L 182.65 161.6953 ZM 256 0 C 114.6139 0 0 114.6128 0 256 C 0 397.3872 114.6139 512 256 512 C 397.3856 512 512 397.3872 512 256 C 512 114.6128 397.3856 0 256 0 ZM 182.0444 256 C 182.0444 296.845 215.1544 329.9556 256 329.9556 C 296.845 329.9556 329.9556 296.845 329.9556 256 C 329.9556 215.155 296.845 182.0444 256 182.0444 C 215.1544 182.0444 182.0444 215.155 182.0444 256 ZM 256 208.1194 C 282.4428 208.1194 303.88 229.5556 303.88 256 C 303.88 282.4445 282.4428 303.8806 256 303.8806 C 229.5567 303.8806 208.1194 282.4445 208.1194 256 C 208.1194 229.5556 229.5567 208.1194 256 208.1194 Z"/>
</svg>