<?xml version="1.0" standalone="no"?>
<!DOCTYPE svg PUBLIC "-//W3C//DTD SVG 1.1//EN" "http://www.w3.org/Graphics/SVG/1.1/DTD/svg11.dtd">
<svg viewBox="0 0 512 512" version="1.1" xmlns="http://www.w3.org/2000/svg" x="0" y="0" width="512px" height="512px">
<path d="M 339.3616 290.3597 C 388.912 244.3987 383.8334 203.0511 339.3616 163.6823 L 281.709 122.5673 C 262.363 108.7686 246.6759 110.5355 246.6759 126.5143 L 246.6759 150.1474 C 246.6759 166.1261 262.363 190.2695 281.709 204.0682 L 294.567 227.021 L 281.709 249.9737 C 262.363 263.7724 246.6759 287.9158 246.6759 303.8946 L 246.6759 327.5277 C 246.6759 343.5064 262.363 345.2733 281.709 331.4746 L 339.3616 290.3597 ZM 187.7042 291.3212 C 237.2546 245.3603 237.1331 203.5336 192.6613 164.1648 L 135.0087 123.0498 C 115.6627 109.2511 99.9756 111.0146 99.9756 126.9968 L 99.9756 150.6299 C 99.9756 166.6121 115.6627 190.752 135.0087 204.5473 L 147.8701 227.5035 L 135.0087 250.4597 C 115.6627 264.2549 99.9756 288.3949 99.9756 304.3771 L 99.9756 328.0102 C 99.9756 343.9924 115.6627 345.7559 135.0087 331.9572 L 187.7042 291.3212 Z"/>
</svg>