<?xml version="1.0" standalone="no"?>
<!DOCTYPE svg PUBLIC "-//W3C//DTD SVG 1.1//EN" "http://www.w3.org/Graphics/SVG/1.1/DTD/svg11.dtd">
<svg viewBox="0 0 512 512" version="1.1" xmlns="http://www.w3.org/2000/svg" x="0" y="0" width="512px" height="512px">
<path d="M 212.1045 178.0752 L 123.3096 151.2993 C 123.3096 151.2993 65.0225 143.1899 78.8994 194.5229 C 91.2129 240.0898 191.0195 370.8047 256 376.9199 C 320.9805 370.8047 420.7852 240.0898 433.0977 194.5229 C 446.9746 143.1899 388.6875 151.2993 388.6875 151.2993 L 299.8926 178.0752 L 299.8906 21.6143 C 299.8906 9.6772 289.9482 0 277.6855 0 L 234.3125 0 C 222.0488 0 212.1064 9.6772 212.1064 21.6143 L 212.1045 178.0752 ZM 255.9141 473.208 C 173.292 473.208 112.6221 441.0732 119.7002 404.9785 C 122.9795 388.25 140.499 373.7461 166.0615 363.541 L 136.7051 341.1797 C 92.6475 355.7461 60.707 378.1865 52.8721 404.9785 C 36.7363 460.1924 126.5215 511.8389 255.9141 511.8389 L 256.083 511.8389 C 385.4756 511.8389 475.2607 460.1924 459.126 404.9785 C 451.29 378.1865 419.3496 355.7461 375.292 341.1797 L 345.9355 363.541 C 371.498 373.7461 389.0176 388.25 392.2969 404.9785 C 399.375 441.0732 338.7061 473.208 256.083 473.208 L 255.9141 473.208 Z"/>
</svg>