<?xml version="1.0" standalone="no"?>
<!DOCTYPE svg PUBLIC "-//W3C//DTD SVG 1.1//EN" "http://www.w3.org/Graphics/SVG/1.1/DTD/svg11.dtd">
<svg viewBox="0 0 512 512" version="1.1" xmlns="http://www.w3.org/2000/svg" x="0" y="0" width="512px" height="512px">
<path d="M 0 256 C 0 397.3854 114.6146 512 256 512 C 397.3854 512 512 397.3854 512 256 C 512 114.6146 397.3854 0 256 0 C 114.6146 0 0 114.6146 0 256 ZM 73.2865 256 C 73.2865 155.0885 155.0885 73.2865 256 73.2865 C 356.9115 73.2865 438.7135 155.0885 438.7135 256 C 438.7135 356.9115 356.9115 438.7135 256 438.7135 C 155.0885 438.7135 73.2865 356.9115 73.2865 256 ZM 256 128 C 232.4375 128 213.3333 147.1042 213.3333 170.6667 L 213.3333 213.3333 L 170.6667 213.3333 C 147.1042 213.3333 128 232.4375 128 256 C 128 279.5625 147.1042 298.6667 170.6667 298.6667 L 213.3333 298.6667 L 213.3333 341.3333 C 213.3333 364.8958 232.4375 384 256 384 C 279.5625 384 298.6667 364.8958 298.6667 341.3333 L 298.6667 298.6667 L 341.3333 298.6667 C 364.8958 298.6667 384 279.5625 384 256 C 384 232.4375 364.8958 213.3333 341.3333 213.3333 L 298.6667 213.3333 L 298.6667 170.6667 C 298.6667 147.1042 279.5625 128 256 128 Z"/>
</svg>