<?xml version="1.0" standalone="no"?>
<!DOCTYPE svg PUBLIC "-//W3C//DTD SVG 1.1//EN" "http://www.w3.org/Graphics/SVG/1.1/DTD/svg11.dtd">
<svg viewBox="0 0 512 512" version="1.1" xmlns="http://www.w3.org/2000/svg" x="0" y="0" width="512px" height="512px">
<path d="M 384.9206 0 C 341.9747 0 307.1596 34.8422 307.1596 77.8234 L 307.1596 434.1766 C 307.1596 477.1578 341.9747 512 384.9206 512 L 434.0302 512 C 476.9761 512 511.7912 477.1578 511.7912 434.1766 L 511.7912 77.8234 C 511.7912 34.8422 476.9761 0 434.0302 0 L 384.9206 0 ZM 77.9715 0 C 35.0256 0 0.2105 34.8422 0.2105 77.8234 L 0.2105 434.1766 C 0.2105 477.1578 35.0256 512 77.9715 512 L 127.0811 512 C 170.027 512 204.8421 477.1578 204.8421 434.1766 L 204.8421 77.8234 C 204.8421 34.8422 170.027 0 127.0811 0 L 77.9715 0 Z"/>
</svg>