<?xml version="1.0" standalone="no"?>
<!DOCTYPE svg PUBLIC "-//W3C//DTD SVG 1.1//EN" "http://www.w3.org/Graphics/SVG/1.1/DTD/svg11.dtd">
<svg viewBox="0 0 512 512" version="1.1" xmlns="http://www.w3.org/2000/svg" x="0" y="0" width="512px" height="512px">
<path d="M 0 256 C 0 397.3854 114.6146 512 256 512 C 397.3854 512 512 397.3854 512 256 C 512 114.6146 397.3854 0 256 0 C 114.6146 0 0 114.6146 0 256 ZM 205.9896 324.9006 C 192.816 319.7422 180.9618 317.1628 170.4236 317.1628 C 153.2986 317.1628 139.684 321.5842 129.1458 329.6901 C 118.6076 337.796 113.7778 348.1129 113.7778 359.9032 C 113.7778 364.9393 114.5483 369.4719 116.16 373.6 C 89.4061 341.8202 73.2847 300.7939 73.2847 256 C 73.2847 155.0885 155.0903 73.2865 256 73.2865 C 356.9097 73.2865 438.7153 155.0885 438.7153 256 C 438.7153 356.9115 356.9097 438.7135 256 438.7135 C 209.487 438.7135 167.0341 421.3307 134.78 392.71 C 142.3103 396.3391 151.4097 398.2222 162.0799 398.2222 C 174.8125 398.2222 186.6701 395.6432 197.2083 391.2218 C 207.7465 386.4319 215.6493 380.168 220.0417 372.799 C 224.434 365.0616 226.6285 354.0082 226.6285 340.007 L 226.6285 195.9423 L 349.1389 163.8871 L 349.1389 288.7921 C 339.4792 285.8446 332.4549 283.6337 328.5 282.8971 C 324.1111 282.1602 319.2813 281.4232 314.0104 281.4232 C 297.3264 281.4232 283.7118 285.8446 273.1736 293.9505 C 262.6354 302.4249 257.3646 312.3733 257.3646 323.7951 C 257.3646 335.217 261.757 344.4284 270.5382 351.7973 C 279.3229 359.1662 291.618 362.4826 306.5451 362.4826 C 319.2813 362.4826 330.6979 360.2717 341.2361 355.4818 C 351.7743 351.0603 358.7986 344.7969 363.191 337.4279 C 367.5833 330.0586 369.7778 319.3737 369.7778 305.0039 L 369.7778 113.7778 L 205.9896 156.5182 L 205.9896 324.9006 Z"/>
</svg>