<?xml version="1.0" standalone="no"?>
<!DOCTYPE svg PUBLIC "-//W3C//DTD SVG 1.1//EN" "http://www.w3.org/Graphics/SVG/1.1/DTD/svg11.dtd">
<svg viewBox="0 0 512 512" version="1.1" xmlns="http://www.w3.org/2000/svg" x="0" y="0" width="512px" height="512px">
<path d="M 295.525 180.71 L 269.645 199.53 C 281.1892 215.3763 288 234.8935 288 256 C 288 277.1065 281.1892 296.6237 269.645 312.47 L 295.525 331.29 C 310.9175 310.1614 320 284.1422 320 256 C 320 227.8578 310.9175 201.8385 295.525 180.71 ZM 373.17 124.24 L 347.29 143.065 C 370.3787 174.7578 384 213.7868 384 256 C 384 298.2132 370.3787 337.2422 347.29 368.935 L 373.17 387.76 C 400.1067 350.7851 416 305.2487 416 256 C 416 206.7513 400.1067 161.2149 373.17 124.24 ZM 450.815 67.77 L 424.935 86.595 C 459.5683 134.1343 480 192.6798 480 256 C 480 319.3202 459.5683 377.8657 424.935 425.405 L 450.815 444.23 C 489.2963 391.4086 512 326.3556 512 256 C 512 185.6445 489.2963 120.5913 450.815 67.77 ZM 0 176 L 0 336 L 80 336 L 192 448 L 192 64 L 80 176 L 0 176 Z"/>
</svg>