<?xml version="1.0" standalone="no"?>
<!DOCTYPE svg PUBLIC "-//W3C//DTD SVG 1.1//EN" "http://www.w3.org/Graphics/SVG/1.1/DTD/svg11.dtd">
<svg viewBox="0 0 512 512" version="1.1" xmlns="http://www.w3.org/2000/svg" x="0" y="0" width="512px" height="512px">
<path d="M 37.32 256 L 114.12 128 L 480 128 L 480 384 L 114.12 384 L 37.32 256 ZM 96 96 L 0 256 L 96 416 L 512 416 L 512 96 L 96 96 ZM 128 256 C 128 238.3267 142.3267 224 160 224 C 177.6733 224 192 238.3267 192 256 C 192 273.6733 177.6733 288 160 288 C 142.3267 288 128 273.6733 128 256 ZM 96 256 C 96 291.3467 124.6533 320 160 320 C 195.3467 320 224 291.3467 224 256 C 224 220.6533 195.3467 192 160 192 C 124.6533 192 96 220.6533 96 256 Z"/>
</svg>