<?xml version="1.0" standalone="no"?>
<!DOCTYPE svg PUBLIC "-//W3C//DTD SVG 1.1//EN" "http://www.w3.org/Graphics/SVG/1.1/DTD/svg11.dtd">
<svg version="1.1" xmlns="http://www.w3.org/2000/svg" x="0" y="0" width="188px" height="99px" viewBox="0 0 188 99">
	<defs>
		<linearGradient id="g" x1="53.0945%" y1="0" x2="52.4756%" y2="104.5455%">
			<stop stop-color="#f90" stop-opacity="1" offset="0"/>
			<stop stop-color="#ffc51d" stop-opacity="1" offset="97.7778%"/>
		</linearGradient>
	</defs>
    <path d="M 112.3677 37.8298 C 112.3677 37.8298 111.7834 49.9462 108.0042 59.8118 C 105.7417 65.7175 104.589 69.9048 104.2422 72.7331 C 104.1711 73.0942 104.1312 73.4689 104.1265 73.8536 C 104.0825 77.3334 106.8938 80.3646 110.4302 80.6129 C 113.0513 80.7969 115.3281 79.4007 116.3557 77.2394 C 117.5912 74.933 118.17 70.8504 118.0532 64.369 C 117.9397 58.0778 119.4271 39.017 122.0278 36.4064 C 124.9526 33.4707 128.8245 37.3642 133.3721 34.0934 C 135.6846 32.4303 136.0389 25.7583 130.2783 25.5803 C 127.438 25.4927 124.6832 26.907 124.2437 25.6421 C 123.6135 23.8297 124.7279 22.4994 125.7218 21.0647 C 126.3018 20.2071 126.6368 19.1882 126.6348 18.0951 C 126.6339 17.7206 126.5939 17.3548 126.5178 17.0013 C 126.0323 14.0693 122.959 12.132 119.8779 12.6481 C 117.0942 13.0565 114.9623 15.3238 114.9482 18.0623 C 114.9463 18.4276 114.9822 18.7852 115.0522 19.1312 C 115.0442 21.4547 115.946 24.6142 114.406 25.4642 C 113.3547 27.9978 98.8079 25.4642 89.8877 34.4908 C 82.7429 41.7208 88.7043 50.907 92.1608 54.2875 C 97.9805 59.9792 92.437 67.7484 84.1428 66.7695 C 75.8286 65.7883 72.5422 68.4348 72.2295 72.8132 C 71.9805 76.2987 76.6285 77.3934 77.6016 77.4063 C 78.5767 77.4193 81.4177 76.8962 89.0571 77.1702 C 103.188 77.677 108.3591 60.7615 97.0353 49.5726 C 91.3632 43.9681 98.5419 36.2285 110.7725 36.0506 C 110.7725 36.0506 113.0654 35.6512 112.3677 37.8298 Z" fill="#fff"/>
    <path d="M 121.1469 72.832 C 121.3418 66.064 127.0679 60.6877 133.9333 60.8114 C 140.7953 60.9352 146.2168 66.5074 146.0459 73.2694 C 145.8746 80.0446 140.156 85.4508 133.2699 85.333 C 126.3803 85.2153 120.9512 79.613 121.1469 72.832 Z" fill="#fff"/>
    <path d="M 168.8645 17.9391 C 170.0322 8.0542 163.5157 0.1388 154.5682 1.0754 C 147.5222 1.8129 141.8936 7.8729 140.3945 14.9586 C 137.0453 26.3993 133.9736 51.8339 134.5798 54.2529 C 135.2966 57.1125 138.7136 60.298 142.0083 58.2375 C 146.6447 55.3381 167.6097 28.5615 168.8645 17.9391 Z" fill="#fff"/>
    <path d="M 19.9666 53.6772 C 36.6091 39.5898 36.0618 63.136 15.4326 75.072 C 14.9225 75.3671 14.1348 75.8774 13.7356 76.0154 C 12.7712 76.2159 13.0244 74.4565 12.9125 74.0161 C 12.9125 74.0161 15.1968 64.5526 17.5834 57.14 C 17.885 56.2032 18.3362 54.6229 19.9666 53.6772 ZM 15.1816 29.0511 C 12.901 37.947 7.043 60.56 5.0459 67.6899 C -0.239 86.5588 -2.2607 91.1056 3.3716 92.7862 C 4.1195 93.0095 5.3511 93.1889 6.7073 92.6185 C 44.4685 76.7378 45.8904 40.7258 35.7957 40.007 C 30.5731 39.635 25.7798 42.1472 21.3246 45.201 C 20.8953 45.3843 19.7102 45.6788 20.2268 43.2634 L 23.2813 30.6309 C 24.2397 27.088 24.9966 24.1612 25.3071 22.7634 C 26.2434 18.5481 31.3145 5.6838 20.9545 11.056 C 13.4489 14.9482 1.9192 26.0626 1.5702 29.251 C 1.2596 32.0884 7.4492 30.817 12.8035 27.8461 C 14.4313 26.9427 15.8164 26.5749 15.1816 29.0511 Z" fill="#fff"/>
    <path d="M 44.0275 45.403 C 44.5533 49.4791 42.7334 56.876 39.9531 64.8376 C 39.2681 66.7992 38.4086 69.7655 37.5232 71.5792 C 33.7976 79.2117 36.4834 82.3292 40.3892 81.1217 C 48.1925 78.7904 54.8923 78.2453 59.9899 78.009 C 64.0709 77.8199 63.9894 74.4025 63.9894 74.4025 C 64.1709 69.4496 59.6989 67.554 56.5071 67.4395 C 53.5205 67.3324 51.326 68.7354 49.6786 68.5337 C 47.2595 68.2374 48.7551 63.3824 49.8552 59.5689 C 53.3345 47.509 53.7546 42.4362 53.8459 40.4867 C 54.0123 36.9352 52.4429 34.6229 49.5869 34.5206 C 46.7311 34.4182 43.948 36.8398 43.3708 39.9294 C 43.0823 41.473 43.802 43.656 44.0275 45.403 Z" fill="#fff"/>
    <path d="M 70.3917 48.4524 C 73.1523 48.5179 73.9423 46.3322 73.9878 44.5645 C 74.0272 43.0385 73.0787 41.9717 71.6899 41.7037 C 70.7594 41.3765 68.9648 41.5725 68.9648 41.5725 C 68.9648 41.5725 62.8536 42.3553 58.6698 45.9335 C 56.6299 47.6781 55.2565 50.303 54.6298 53.044 C 54.4136 53.7885 54.28 54.5704 54.2417 55.3771 C 53.9955 60.5366 57.752 64.8473 62.7321 64.9473 C 64.1592 64.9761 65.5297 64.655 66.7667 64.0563 C 68.9919 63.3281 71.229 62.5209 72.0927 62.7678 C 73.8815 63.4865 75.405 63.9087 78.1517 63.4397 C 81.7402 62.8268 83.0122 54.8408 84.262 44.9884 C 85.4872 35.3286 82.7097 33.7971 78.186 32.5735 C 73.7634 31.3774 67.1923 32.2693 63.7106 33.7186 C 59.8604 35.3212 59.6514 37.5176 59.6418 37.7905 C 59.5857 39.4153 60.8501 40.7795 62.4658 40.8375 C 63.9645 40.8911 64.3445 38.4946 69.843 37.3528 C 75.2483 36.2303 76.1355 39.2152 76.2822 40.6698 C 76.4294 42.1309 76.744 47.0957 74.8906 51.1912 C 73.1528 55.0319 70.2795 57.4493 65.0273 57.2648 C 63.5831 57.2139 61.7288 55.9194 62.0912 53.6111 C 62.774 49.2617 66.824 48.5632 70.3917 48.4524 Z" fill="#fff"/>
    <path d="M 37.7319 17.8302 C 39.1904 17.5392 40.809 17.7357 41.3977 16.0342 C 41.9392 14.3918 40.7542 13.7402 38.3652 14.2158 C 33.1968 15.2446 30.3958 18.0985 29.5387 22.3801 L 27.5784 32.1743 C 27.4011 33.0598 28.1282 33.7327 29.475 33.462 C 30.7463 33.2065 31.7649 32.1832 31.9294 31.3007 L 33.7756 21.4014 C 34.2393 18.9163 35.6321 18.249 37.7319 17.8302 L 37.7319 17.8302 Z" fill="#fff"/>
    <path d="M 54.7456 28.8379 C 56.1182 28.6044 57.0873 27.6173 57.2075 26.7435 L 58.5603 16.9091 C 59.0862 13.0854 57.2671 10.7048 52.1382 11.5765 C 46.6951 12.5016 43.1809 16.9578 42.4614 20.7453 L 41.8777 23.8184 C 41.1993 27.3886 42.7225 30.7034 47.5055 29.89 C 50.4346 29.3919 51.6263 28.2254 52.7017 26.8377 L 53.0165 26.8901 L 52.9285 27.4713 C 52.796 28.347 53.5215 29.0461 54.7456 28.8379 L 54.7456 28.8379 ZM 53.9197 20.9199 C 53.5049 23.6623 51.2087 25.4072 49.0862 25.7681 C 47.1465 26.0979 45.8979 24.9211 46.197 23.2206 L 46.7855 19.8765 C 47.1644 17.7223 49.1514 15.5847 51.5535 15.1764 C 53.6379 14.8221 54.7478 15.4487 54.4099 17.681 L 53.9197 20.9199 L 53.9197 20.9199 ZM 57.9583 6.4009 C 60.0256 5.2823 58.8811 2.5399 56.8328 3.6389 L 51.6475 6.798 C 51.1013 7.0746 50.6581 7.9188 50.8896 8.5286 C 51.1219 9.1412 51.9282 9.347 52.5132 9.0605 L 57.9583 6.4009 L 57.9583 6.4009 Z" fill="#fff"/>
    <path d="M 70.3446 9.0443 C 65.2644 9.7386 62.5887 13.4338 61.8975 17.6763 L 61.53 19.9315 C 60.8074 24.3666 63.0032 27.7433 68.8087 26.9615 C 74.2512 26.2285 77.3573 22.5194 77.8425 18.0627 L 79.3989 3.7687 C 79.4812 3.0131 78.7729 2.4009 77.5078 2.5746 C 76.3796 2.7296 75.505 3.5588 75.4121 4.3154 L 74.6868 10.2213 L 74.4373 10.2877 C 73.6196 9.3985 72.2251 8.7872 70.3446 9.0443 L 70.3446 9.0443 ZM 69.3445 23.002 C 66.825 23.3423 65.3856 21.962 65.7531 19.4958 L 66.1299 16.9667 C 66.4852 14.5815 68.3313 12.8477 70.7634 12.5162 C 72.7383 12.2471 74.2292 13.0973 74.0442 15.4543 L 73.637 18.7701 C 73.3213 21.342 71.4634 22.7156 69.3445 23.002 L 69.3445 23.002 Z" fill="#fff"/>
    <path d="M 81.6331 23.2463 C 81.5249 24.1199 82.3079 24.8677 83.6393 24.7262 C 84.8972 24.5926 85.8408 23.6606 85.9365 22.7875 L 87.5479 8.085 C 87.6339 7.2991 86.9146 6.6382 85.7304 6.7683 C 84.4771 6.9061 83.5491 7.7477 83.4519 8.5341 L 81.6331 23.2463 L 81.6331 23.2463 ZM 84.0745 3.4978 C 83.9802 4.2611 84.7188 4.905 85.9633 4.7676 C 87.1394 4.6378 88.0159 3.8151 88.0994 3.0523 L 88.1826 2.2937 C 88.2653 1.5391 87.5586 0.9069 86.3979 1.036 C 85.1694 1.1725 84.262 1.9834 84.1685 2.7385 L 84.0745 3.4978 L 84.0745 3.4978 Z" fill="#fff"/>
    <path d="M 90.6738 16.2485 C 90.1195 20.498 92.2336 23.9436 98.0544 23.5175 C 103.8594 23.0924 106.7837 19.2589 107.1051 15.0047 L 107.286 12.6125 C 107.6062 8.376 105.3715 5.1397 99.9055 5.5708 C 94.4233 6.0032 91.5378 9.6259 90.9856 13.8588 L 90.6738 16.2485 L 90.6738 16.2485 ZM 95.214 13.4675 C 95.5267 10.7786 97.1428 9.223 99.5481 9.0359 C 101.9568 8.8485 103.2813 10.1791 103.0393 12.869 L 102.8148 15.3641 C 102.5835 17.9376 100.9412 19.5507 98.4443 19.7365 C 95.9517 19.9219 94.6249 18.5335 94.9238 15.9614 L 95.214 13.4675 L 95.214 13.4675 Z" fill="#fff"/>
    <path d="M 169.9795 72.1837 C 169.4092 72.4727 168.0325 73.1248 168.1616 72.6047 C 168.2938 72.0726 169.3567 70.6755 169.9241 70.5821 L 169.9795 70.5771 L 170.0347 70.5821 C 170.6021 70.6755 171.665 72.0726 171.7971 72.6047 C 171.9263 73.1248 170.5496 72.4727 169.9795 72.1837 ZM 162.7454 69.3545 C 161.0122 63.0289 166.8618 62.8108 167.6201 65.4283 C 168.3784 68.0458 167.7284 70.4452 165.3452 70.3361 C 162.962 70.227 162.8318 69.67 162.7454 69.3545 ZM 177.3504 69.3545 C 177.2638 69.67 177.1336 70.227 174.7504 70.3361 C 172.3672 70.4452 171.7173 68.0458 172.4756 65.4283 C 173.2339 62.8108 179.0835 63.0289 177.3504 69.3545 ZM 176.0207 49.2019 C 176.261 48.4827 176.3627 47.7074 176.0994 47.0307 C 175.3572 45.1233 173.0696 44.7434 169.0351 46.4844 C 167.9227 46.9644 167.1993 47.0773 166.7355 46.9884 L 166.6848 46.9693 C 166.6848 46.9693 166.072 46.8423 166.1085 46.1459 C 166.1448 45.4495 166.3353 44.8762 168.1738 44.7472 C 170.0144 44.6181 169.6108 44.7502 170.4838 44.7018 C 171.3571 44.6534 172.0364 43.814 171.4134 43.1176 C 171.4134 43.1176 171.3298 43.9231 170.29 43.748 C 169.2507 43.5732 168.9871 42.2007 170.7875 41.8918 C 172.5899 41.5827 174.7695 41.8993 175.5133 39.907 C 176.2576 37.9136 174.5247 37.5014 173.9525 37.5743 C 173.9525 37.5743 174.6517 37.8934 174.6992 38.4589 C 174.7466 39.0244 174.3489 40.0546 173.4422 40.0062 C 172.5359 39.9579 169.1661 39.02 167.3821 40.1227 C 165.6003 41.2241 167.2082 42.5068 165.6258 43.4392 C 164.0449 44.3705 164.0183 41.6482 165.5817 41.7352 C 165.5817 41.7352 164.0119 41.2625 163.5577 43.4557 C 163.1844 45.2572 164.1117 47.3762 165.6505 47.9141 C 165.9153 48.0393 166.2617 48.0974 166.7105 48.0569 C 169.4726 47.808 172.8957 45.2409 174.4079 46.9556 C 174.8928 47.5053 175.0109 48.0756 174.9476 48.5975 C 171.9155 47.305 168.628 49.0957 168.3891 50.0388 L 168.0871 51.189 C 162.3942 52.077 158.0331 57.0922 158.0331 63.1465 C 158.0331 65.7689 158.8521 68.1932 160.2426 70.1749 C 160.2426 70.1749 160.1678 70.776 159.7941 71.0766 C 159.4444 71.3578 160.3378 72.5607 162.4747 72.8373 C 162.7871 73.5248 163.2537 74.4921 163.7203 75.2439 C 164.5327 76.5526 167.4575 77.4524 167.2951 76.8798 C 167.2106 76.5818 167.2142 75.7091 167.2371 74.9396 C 167.5381 75.0099 167.843 75.0687 168.1523 75.115 L 168.1596 75.1467 C 168.147 76.1193 168.2248 77.1241 168.595 77.207 C 168.9446 77.2852 169.4604 77.382 169.9489 77.3814 C 170.4373 77.382 170.9547 77.2852 171.3042 77.207 C 171.6748 77.1241 171.7534 76.1155 171.7405 75.1418 L 171.7503 75.098 C 172.0582 75.0486 172.3611 74.9882 172.6607 74.9152 C 172.6841 75.6907 172.6895 76.5787 172.6041 76.8798 C 172.4416 77.4524 175.3664 76.5526 176.1788 75.2439 C 176.6512 74.483 177.1235 73.5012 177.4359 72.8125 C 179.4497 72.4959 180.2863 71.3503 179.9461 71.0766 C 179.6445 70.8341 179.5377 70.3961 179.5077 70.2357 C 180.9224 68.2433 181.7567 65.7938 181.7567 63.1465 C 181.7567 59.6655 180.3154 56.5279 178.008 54.3208 C 178.3909 53.4101 178.5933 52.5562 178.3371 52.0456 C 177.6759 50.728 176.8761 49.8127 176.0207 49.2019 ZM 173.0145 37.6418 C 170.8559 36.9961 172.2086 36.3209 172.5828 35.7925 C 172.957 35.2642 172.2374 35 172.2374 35 C 172.4101 36.1741 170.1076 35.5284 170.2515 36.6732 C 170.3954 37.8179 173.0145 37.6418 173.0145 37.6418 ZM 181.2783 77.0061 L 170.0021 81.3829 L 158.7211 77.0061 C 157.5472 75.824 157.7258 74.7628 157.6853 74.6011 C 157.3723 73.3467 156.2086 72.462 154.8652 72.5474 C 153.3337 72.6447 152.1456 73.9666 152.2117 75.5016 C 152.222 75.7412 152.2386 75.981 152.3287 76.1901 C 152.851 77.4028 152.4304 77.9308 152.4295 77.8844 C 152.4285 77.838 151.9791 78.7346 152.0008 79.2403 C 152.0493 80.3713 153.0027 81.231 154.1302 81.1593 C 154.585 81.1305 154.9983 80.9545 155.3264 80.6806 C 155.7626 80.3164 156.6567 79.9354 157.9318 80.257 L 165.4089 83.1644 L 159.9027 85.2992 C 158.9744 85.3714 158.3147 85.0618 157.9608 84.7631 C 157.6351 84.488 157.2225 84.3115 156.7669 84.2825 C 155.6368 84.2108 154.6673 85.0743 154.6013 86.2124 C 154.5718 86.7221 155.0103 87.6267 155.012 87.5799 C 155.0137 87.533 155.429 88.0664 154.885 89.2935 C 154.7909 89.5056 154.7708 89.7485 154.7566 89.9914 C 154.6665 91.5507 155.8475 92.896 157.3947 92.9943 C 158.7516 93.0805 159.9373 92.1784 160.2661 90.9029 C 160.3114 90.7271 160.1167 89.5065 161.6074 88.2114 L 169.9997 84.9482 L 178.3945 88.2114 C 179.8853 89.5065 179.6886 90.7271 179.7339 90.9029 C 180.0627 92.1784 181.2484 93.0805 182.6053 92.9943 C 184.1524 92.896 185.3335 91.5507 185.2433 89.9914 C 185.2294 89.7485 185.2091 89.5056 185.1151 89.2935 C 184.5711 88.0664 184.9863 87.533 184.9881 87.5799 C 184.9897 87.6267 185.4282 86.7221 185.3987 86.2124 C 185.3327 85.0743 184.3631 84.2108 183.2331 84.2825 C 182.7775 84.3115 182.3649 84.488 182.0392 84.7631 C 181.6853 85.0618 181.025 85.3714 180.0967 85.2992 L 174.593 83.1644 L 182.0701 80.257 C 183.345 79.9355 184.2374 80.3164 184.6736 80.6806 C 185.0017 80.9545 185.415 81.1305 185.8698 81.1593 C 186.9973 81.231 187.9507 80.3713 187.9992 79.2403 C 188.0209 78.7346 187.5715 77.838 187.5705 77.8844 C 187.5696 77.9308 187.149 77.4028 187.6714 76.1901 C 187.7615 75.981 187.778 75.7412 187.7883 75.5016 C 187.8544 73.9666 186.6664 72.6447 185.1348 72.5474 C 183.7914 72.462 182.6277 73.3467 182.3147 74.6011 C 182.2744 74.7628 182.4523 75.824 181.2783 77.0061 Z" fill="#f90"/>
    <path opacity="0.902" d="M 76 77 L 147 77 C 148.6569 77 149.6948 78.3431 149.3182 80 L 145.6818 96 C 145.3053 97.6569 143.6569 99 142 99 L 71 99 C 69.3432 99 68.3053 97.6569 68.6819 96 L 72.3182 80 C 72.6948 78.3431 74.3432 77 76 77 Z" fill="url(#g)"/>
    <path d="M 79.0087 92.2554 C 78.9426 92.6324 79.2551 92.9944 79.8566 92.9944 C 80.3979 92.9944 80.8522 92.6324 80.9184 92.2554 L 80.9843 91.8784 C 81.0505 91.5014 80.7228 91.1394 80.1816 91.1394 C 79.58 91.1394 79.1408 91.5014 79.0746 91.8784 L 79.0087 92.2554 L 79.0087 92.2554 Z" fill="#fff"/>
    <path d="M 83.7385 89.3228 C 83.3886 91.3189 84.3278 92.9955 86.6284 92.9955 C 88.1924 92.9955 89.4851 92.2252 89.6306 91.3945 C 89.6889 91.0622 89.541 90.7903 89.1501 90.7903 C 88.7741 90.7903 88.6433 90.8507 88.1418 91.1377 C 87.7944 91.3191 87.4777 91.4099 86.8913 91.4099 C 85.9289 91.4099 85.2407 90.7897 85.4765 89.4434 L 85.9775 86.5843 C 86.2163 85.2228 87.1218 84.6027 88.0842 84.6027 C 88.6706 84.6027 88.9721 84.769 89.2534 84.9657 C 89.5444 85.1927 89.7719 85.2683 90.1028 85.2683 C 90.4184 85.2683 90.7439 85.0416 90.8154 84.6335 C 90.9609 83.8023 89.9409 83.0164 88.3772 83.0164 C 86.0766 83.0164 84.5495 84.694 84.1997 86.6902 L 83.7385 89.3228 L 83.7385 89.3228 Z" fill="#fff"/>
    <path d="M 91.834 89.0644 C 91.447 91.2731 92.3176 92.9969 94.9341 92.9969 C 97.5654 92.9969 99.0554 91.2731 99.4424 89.0644 L 99.8135 86.9465 C 100.2004 84.7378 99.3142 83.0173 96.6828 83.0173 C 94.0664 83.0173 92.592 84.7378 92.2051 86.9465 L 91.834 89.0644 L 91.834 89.0644 ZM 93.9343 86.9465 C 94.2231 85.2975 95.1316 84.6621 96.3945 84.6621 C 97.6877 84.6621 98.3433 85.2975 98.0542 86.9465 L 97.6804 89.0795 C 97.3916 90.7285 96.5134 91.3639 95.2202 91.3639 C 93.957 91.3639 93.2715 90.7285 93.5605 89.0795 L 93.9343 86.9465 L 93.9343 86.9465 Z" fill="#fff"/>
    <path d="M 106.2078 90.1083 C 106.7039 90.1083 107.0779 89.7756 107.2964 89.4732 L 109.5979 85.9496 L 108.4876 92.286 C 108.4241 92.6489 108.709 92.9967 109.2051 92.9967 C 109.7615 92.9967 110.1682 92.6489 110.232 92.286 L 111.7317 83.7266 C 111.7954 83.3636 111.5105 83.0158 110.9541 83.0158 L 110.7161 83.0007 C 110.2075 82.9855 109.8194 83.2275 109.5681 83.5451 L 106.5735 88.0214 L 105.1475 83.5451 C 105.0227 83.2275 104.7139 83.0158 104.2026 83.0158 L 103.947 83.0158 C 103.4058 83.0158 102.9839 83.3636 102.9204 83.7266 L 101.4204 92.286 C 101.3569 92.6489 101.6567 92.9967 102.198 92.9967 C 102.7092 92.9967 103.1162 92.6489 103.1797 92.286 L 104.29 85.9496 L 105.3416 89.4732 C 105.469 89.7756 105.7266 90.1083 106.2078 90.1083 L 106.2078 90.1083 Z" fill="#fff"/>
    <path d="M 112.6294 92.2554 C 112.5635 92.6324 112.876 92.9944 113.4773 92.9944 C 114.0188 92.9944 114.4732 92.6324 114.5391 92.2554 L 114.6053 91.8784 C 114.6712 91.5014 114.3438 91.1394 113.8025 91.1394 C 113.201 91.1394 112.7617 91.5014 112.6956 91.8784 L 112.6294 92.2554 L 112.6294 92.2554 Z" fill="#fff"/>
    <path d="M 116.9852 92.0591 C 116.9217 92.4207 117.2088 92.8425 117.75 92.8425 L 120.3213 92.8425 C 123.0579 92.8425 124.0015 91.5771 124.2408 90.2113 L 124.2593 90.1049 C 124.4351 89.1022 124.1873 88.2846 122.9754 87.9075 C 123.9915 87.5153 124.504 86.8216 124.6573 85.9471 L 124.6756 85.8415 C 124.9136 84.4836 124.1822 83.1664 121.701 83.1664 L 119.4456 83.1664 C 118.9043 83.1664 118.4825 83.5146 118.4187 83.878 L 116.9852 92.0591 L 116.9852 92.0591 ZM 119.337 88.6769 L 121.0513 88.6769 C 122.2391 88.6769 122.6546 89.2238 122.5267 89.953 L 122.4869 90.1809 C 122.3589 90.9101 121.7176 91.3963 120.5748 91.3963 L 118.8606 91.3963 L 119.337 88.6769 L 119.337 88.6769 ZM 121.4358 84.6805 C 122.5635 84.6805 123.0582 85.1178 122.9315 85.8415 L 122.8812 86.128 C 122.7676 86.7763 122.2249 87.2136 121.2945 87.289 L 119.5804 87.289 L 120.0374 84.6805 L 121.4358 84.6805 L 121.4358 84.6805 Z" fill="#fff"/>
    <path d="M 126.168 92.2385 C 126.1043 92.6025 126.3961 92.9967 126.9373 92.9967 C 127.4488 92.9967 127.8504 92.6783 127.9141 92.3144 L 128.4881 89.0388 L 129.7511 89.0388 C 129.9466 89.0388 130.127 89.0388 130.295 89.0237 L 131.3414 92.6631 C 131.4688 92.9664 131.9234 93.1178 132.3992 92.8906 C 132.9132 92.6176 133.1637 92.1324 133.0038 91.8442 L 131.9371 88.4061 C 133.1864 87.9692 133.7369 87.2304 133.9168 86.2044 L 133.9352 86.0988 C 134.2447 84.3322 133.4867 83.1664 130.7801 83.1664 L 128.66 83.1664 C 128.1187 83.1664 127.6968 83.5146 127.6331 83.878 L 126.168 92.2385 L 126.168 92.2385 ZM 130.515 84.6805 C 131.8682 84.6805 132.3319 85.2086 132.1812 86.0686 L 132.1309 86.3553 C 132.0042 87.0795 131.3577 87.5925 130.0045 87.5925 L 128.7415 87.5925 L 129.2518 84.6805 L 130.515 84.6805 L 130.515 84.6805 Z" fill="#fff"/>
</svg>